<svg width="378" height="457" xmlns="http://www.w3.org/2000/svg" xmlns:xlink="http://www.w3.org/1999/xlink" xml:space="preserve" overflow="hidden"><defs><linearGradient x1="499.56" y1="510.661" x2="499.56" y2="555.066" gradientUnits="userSpaceOnUse" spreadMethod="pad" id="fill0"><stop offset="0" stop-color="#BDC2C9"/><stop offset="0.7695" stop-color="#979EA8"/><stop offset="1" stop-color="#717A87"/></linearGradient></defs><g transform="translate(-451 -192)"><path d="M580.71 122.115C596.641 122.115 609.574 135.036 609.574 150.978 609.574 166.919 596.641 179.841 580.71 179.841L503.611 179.841C487.681 179.841 474.748 166.919 474.748 150.978 474.748 135.036 487.681 122.115 503.611 122.115Z" stroke="#3A414A" stroke-width="0.555066" fill="#E3FAE3" transform="matrix(1 0 0 1.00283 96.0352 80.9507)"/><path d="M7.26383-6.13314C6.9212-7.09251 6.06461-7.67499 4.7626-7.67499 2.74107-7.67499 1.78169-6.30445 1.78169-4.28292 1.78169-2.22712 2.77533-0.82232 4.83113-0.82232 6.30445-0.82232 6.95546-1.64464 7.50367-2.60401L8.42878-2.12433C7.81204-0.82232 6.68135 0.137053 4.7626 0.137053 2.02154 0.137053 0.753794-1.57611 0.61674-4.28292 0.41116-7.84631 4.00881-9.52521 7.02399-8.08615 7.67499-7.77778 8.08615-7.1953 8.36026-6.51004" fill="#3A414A" transform="matrix(1 0 0 1.00283 592.725 226.945)"/><path d="M3.42633-6.64709C5.55066-6.68135 6.33872-5.37934 6.33872-3.25502 6.37298-1.09643 5.41361 0.137053 3.39207 0.137053 1.37053 0.137053 0.548213-1.19922 0.51395-3.25502 0.51395-5.5164 1.47332-6.64709 3.42633-6.64709ZM3.39207-0.685267C4.89966-0.651003 5.20803-1.74743 5.20803-3.25502 5.20803-4.72834 4.93392-5.82477 3.4606-5.82477 1.98727-5.82477 1.64464-4.72834 1.64464-3.25502 1.64464-1.78169 1.98727-0.71953 3.39207-0.685267" fill="#3A414A" transform="matrix(1 0 0 1.00283 601.599 226.945)"/><path d="M3.90602-5.58492C1.23348-6.13314 2.09006-2.46696 1.95301 0L0.856584 0 0.82232-6.51004 1.85022-6.51004C1.88448-6.09888 1.81596-5.5164 1.91875-5.17376 2.12433-6.09888 2.7068-6.85267 3.90602-6.57856L3.90602-5.58492" fill="#3A414A" transform="matrix(1 0 0 1.00283 608.452 226.945)"/><path d="M4.00881-6.64709C7.05825-6.78414 5.82477-2.67254 6.06461 0L4.96818 0 4.96818-4.14586C4.96818-5.20803 4.69408-5.82477 3.63191-5.7905 1.16495-5.72198 2.12433-2.29564 1.95301 0L0.856584 0 0.82232-6.51004 1.85022-6.51004C1.88448-6.1674 1.81596-5.68772 1.91875-5.41361 2.29564-6.1674 2.91238-6.61282 4.00881-6.64709" fill="#3A414A" transform="matrix(1 0 0 1.00283 612.529 226.945)"/><path d="M3.42633-6.64709C5.58492-6.64709 6.37298-5.20803 6.30445-3.01517L1.6789-3.01517C1.6789-1.64464 2.15859-0.71953 3.49486-0.685267 4.38571-0.651003 4.96818-1.09643 5.17376-1.6789L6.13314-1.4048C5.75624-0.445423 4.86539 0.137053 3.49486 0.137053 1.50759 0.137053 0.479687-1.13069 0.51395-3.28928 0.548213-5.37934 1.4048-6.64709 3.42633-6.64709ZM5.20803-3.87176C5.41361-5.92756 2.60401-6.51004 1.88448-4.83113 1.78169-4.59129 1.6789-4.24865 1.6789-3.87176L5.20803-3.87176" fill="#3A414A" transform="matrix(1 0 0 1.00283 619.382 226.945)"/><path d="M3.90602-5.58492C1.23348-6.13314 2.09006-2.46696 1.95301 0L0.856584 0 0.82232-6.51004 1.85022-6.51004C1.88448-6.09888 1.81596-5.5164 1.91875-5.17376 2.12433-6.09888 2.7068-6.85267 3.90602-6.57856L3.90602-5.58492" fill="#3A414A" transform="matrix(1 0 0 1.00283 626.235 226.945)"/><path d="M2.91238-6.64709C3.97455-6.64709 4.55702-6.20166 4.96818-5.5164L4.93392-8.94273 6.03035-8.94273 6.06461 0 5.03671 0C4.96818-0.342633 5.03671-0.788057 4.93392-1.06216 4.59129-0.274107 3.97455 0.137053 2.91238 0.137053 1.09643 0.137053 0.548213-1.19922 0.51395-3.22075 0.51395-5.48213 1.30201-6.64709 2.91238-6.64709ZM3.22075-5.82477C1.85022-5.82477 1.64464-4.65981 1.64464-3.25502 1.64464-1.88448 1.85022-0.71953 3.18649-0.71953 4.62555-0.71953 4.93392-1.81596 4.93392-3.32354 4.93392-4.7626 4.62555-5.85903 3.22075-5.82477" fill="#3A414A" transform="matrix(1 0 0 1.00283 633.738 226.945)"/><path d="M3.42633-6.64709C5.58492-6.64709 6.37298-5.20803 6.30445-3.01517L1.6789-3.01517C1.6789-1.64464 2.15859-0.71953 3.49486-0.685267 4.38571-0.651003 4.96818-1.09643 5.17376-1.6789L6.13314-1.4048C5.75624-0.445423 4.86539 0.137053 3.49486 0.137053 1.50759 0.137053 0.479687-1.13069 0.51395-3.28928 0.548213-5.37934 1.4048-6.64709 3.42633-6.64709ZM5.20803-3.87176C5.41361-5.92756 2.60401-6.51004 1.88448-4.83113 1.78169-4.59129 1.6789-4.24865 1.6789-3.87176L5.20803-3.87176" fill="#3A414A" transform="matrix(1 0 0 1.00283 640.591 226.945)"/><path d="M2.02154-1.61038C1.95301-0.788057 2.63828-0.61674 3.32354-0.856584L3.32354-0.0342633C2.19285 0.30837 0.92511 0.137053 0.92511-1.37053L0.92511-5.72198 0.171317-5.72198 0.171317-6.51004 0.993637-6.51004 1.30201-7.98336 2.02154-7.98336 2.02154-6.51004 3.22075-6.51004 3.22075-5.72198 2.02154-5.72198 2.02154-1.61038" fill="#3A414A" transform="matrix(1 0 0 1.00283 647.444 226.945)"/><path d="M3.42633-6.64709C5.58492-6.64709 6.37298-5.20803 6.30445-3.01517L1.6789-3.01517C1.6789-1.64464 2.15859-0.71953 3.49486-0.685267 4.38571-0.651003 4.96818-1.09643 5.17376-1.6789L6.13314-1.4048C5.75624-0.445423 4.86539 0.137053 3.49486 0.137053 1.50759 0.137053 0.479687-1.13069 0.51395-3.28928 0.548213-5.37934 1.4048-6.64709 3.42633-6.64709ZM5.20803-3.87176C5.41361-5.92756 2.60401-6.51004 1.88448-4.83113 1.78169-4.59129 1.6789-4.24865 1.6789-3.87176L5.20803-3.87176" fill="#3A414A" transform="matrix(1 0 0 1.00283 650.87 226.945)"/><path d="M3.28928-5.7905C1.91875-5.7905 1.64464-4.65981 1.64464-3.28928 1.64464-1.91875 1.95301-0.71953 3.28928-0.71953 4.1116-0.71953 4.69408-1.19922 4.7626-2.02154L5.85903-1.95301C5.65345-0.685267 4.79687 0.137053 3.32354 0.137053 1.30201 0.137053 0.71953-1.26774 0.51395-3.25502 0.171317-6.44151 3.97455-7.74352 5.55066-5.44787 5.68772-5.20803 5.72198-4.96818 5.7905-4.69408L4.69408-4.59129C4.55702-5.31082 4.14586-5.7905 3.28928-5.7905" fill="#3A414A" transform="matrix(1 0 0 1.00283 657.723 226.945)"/><path d="M2.02154-1.61038C1.95301-0.788057 2.63828-0.61674 3.32354-0.856584L3.32354-0.0342633C2.19285 0.30837 0.92511 0.137053 0.92511-1.37053L0.92511-5.72198 0.171317-5.72198 0.171317-6.51004 0.993637-6.51004 1.30201-7.98336 2.02154-7.98336 2.02154-6.51004 3.22075-6.51004 3.22075-5.72198 2.02154-5.72198 2.02154-1.61038" fill="#3A414A" transform="matrix(1 0 0 1.00283 663.89 226.945)"/><path d="M0.82232-7.91483 0.82232-8.94273 1.91875-8.94273 1.91875-7.91483 0.82232-7.91483ZM0.82232 0 0.82232-6.51004 1.91875-6.51004 1.91875 0 0.82232 0" fill="#3A414A" transform="matrix(1 0 0 1.00283 667.316 226.945)"/><path d="M3.42633-6.64709C5.55066-6.68135 6.33872-5.37934 6.33872-3.25502 6.37298-1.09643 5.41361 0.137053 3.39207 0.137053 1.37053 0.137053 0.548213-1.19922 0.51395-3.25502 0.51395-5.5164 1.47332-6.64709 3.42633-6.64709ZM3.39207-0.685267C4.89966-0.651003 5.20803-1.74743 5.20803-3.25502 5.20803-4.72834 4.93392-5.82477 3.4606-5.82477 1.98727-5.82477 1.64464-4.72834 1.64464-3.25502 1.64464-1.78169 1.98727-0.71953 3.39207-0.685267" fill="#3A414A" transform="matrix(1 0 0 1.00283 670.023 226.945)"/><path d="M4.00881-6.64709C7.05825-6.78414 5.82477-2.67254 6.06461 0L4.96818 0 4.96818-4.14586C4.96818-5.20803 4.69408-5.82477 3.63191-5.7905 1.16495-5.72198 2.12433-2.29564 1.95301 0L0.856584 0 0.82232-6.51004 1.85022-6.51004C1.88448-6.1674 1.81596-5.68772 1.91875-5.41361 2.29564-6.1674 2.91238-6.61282 4.00881-6.64709" fill="#3A414A" transform="matrix(1 0 0 1.00283 676.876 226.945)"/><path d="M2.87812 0.137053C-0.171317 0.274107 1.0279-3.83749 0.788057-6.51004L1.88448-6.51004 1.88448-2.39843C1.88448-1.33627 2.12433-0.685267 3.22075-0.71953 5.68772-0.788057 4.7626-4.18013 4.93392-6.51004L5.99609-6.51004 6.03035 0 5.00245 0C4.96818-0.342633 5.03671-0.856584 4.93392-1.13069 4.55702-0.376897 3.97455 0.10279 2.87812 0.137053" fill="#3A414A" transform="matrix(1 0 0 1.00283 596.854 241.788)"/><path d="M4.62555-4.89966C4.52276-6.06461 1.6789-6.20166 1.64464-4.89966 2.15859-3.0837 5.58492-4.4885 5.72198-1.81596 5.85903 0.856584 0.582477 0.71953 0.342633-1.54185L1.30201-1.71317C1.43906-0.479687 4.62555-0.171317 4.65981-1.71317 4.31718-3.63191 0.788057-2.22712 0.61674-4.79687 0.479687-6.74988 3.42633-6.95546 4.79687-6.23593 5.20803-5.99609 5.5164-5.58492 5.61919-5.03671" fill="#3A414A" transform="matrix(1 0 0 1.00283 603.707 241.788)"/><path d="M0.82232-7.91483 0.82232-8.94273 1.91875-8.94273 1.91875-7.91483 0.82232-7.91483ZM0.82232 0 0.82232-6.51004 1.91875-6.51004 1.91875 0 0.82232 0" fill="#3A414A" transform="matrix(1 0 0 1.00283 609.874 241.788)"/><path d="M4.00881-6.64709C7.05825-6.78414 5.82477-2.67254 6.06461 0L4.96818 0 4.96818-4.14586C4.96818-5.20803 4.69408-5.82477 3.63191-5.7905 1.16495-5.72198 2.12433-2.29564 1.95301 0L0.856584 0 0.82232-6.51004 1.85022-6.51004C1.88448-6.1674 1.81596-5.68772 1.91875-5.41361 2.29564-6.1674 2.91238-6.61282 4.00881-6.64709" fill="#3A414A" transform="matrix(1 0 0 1.00283 612.581 241.788)"/><path d="M6.06461-6.51004C5.72198-2.22712 7.46941 3.52912 2.29564 2.4327 1.50759 2.22712 0.993637 1.74743 0.788057 0.959374L1.88448 0.788057C2.39843 2.39843 5.31082 1.88448 4.93392-0.171317L4.93392-1.19922C4.55702-0.479687 3.94028 0.0342633 2.84386 0.0342633 0.993637 0.0342633 0.51395-1.37053 0.51395-3.25502 0.51395-5.17376 1.06216-6.57856 2.94665-6.61282 3.94028-6.64709 4.59129-6.06461 4.96818-5.41361 5.00245-5.75624 4.96818-6.20166 5.03671-6.51004L6.06461-6.51004ZM3.22075-0.753794C4.45423-0.753794 4.93392-1.85022 4.93392-3.25502 4.93392-4.69408 4.45423-5.82477 3.22075-5.82477 1.88448-5.82477 1.64464-4.65981 1.64464-3.25502 1.64464-1.85022 1.85022-0.753794 3.22075-0.753794" fill="#3A414A" transform="matrix(1 0 0 1.00283 619.434 241.788)"/><path d="M7.02399 0 6.06461-2.46696 2.19285-2.46696 1.23348 0 0.0342633 0 3.49486-8.49731 4.79687-8.49731 8.18894 0 7.02399 0ZM5.72198-3.39207 4.1116-7.60646C3.70044-6.06461 3.04944-4.79687 2.53549-3.39207L5.72198-3.39207" fill="#3A414A" transform="matrix(1 0 0 1.00283 629.712 241.788)"/><path d="M3.90602-5.58492C1.23348-6.13314 2.09006-2.46696 1.95301 0L0.856584 0 0.82232-6.51004 1.85022-6.51004C1.88448-6.09888 1.81596-5.5164 1.91875-5.17376 2.12433-6.09888 2.7068-6.85267 3.90602-6.57856L3.90602-5.58492" fill="#3A414A" transform="matrix(1 0 0 1.00283 637.936 241.788)"/><path d="M7.9491-3.18649C7.91483-0.959374 6.57856 0.137053 4.38571 0.137053 2.29564 0.137053 0.959374-0.959374 0.959374-3.0837L0.959374-8.49731 2.09006-8.49731C2.36417-5.44787 0.959374-0.82232 4.38571-0.82232 7.88057-0.82232 6.57856-5.37934 6.81841-8.49731L7.9491-8.49731 7.9491-3.18649" fill="#3A414A" transform="matrix(1 0 0 1.00283 642.013 241.788)"/><path d="M3.28928-5.7905C1.91875-5.7905 1.64464-4.65981 1.64464-3.28928 1.64464-1.91875 1.95301-0.71953 3.28928-0.71953 4.1116-0.71953 4.69408-1.19922 4.7626-2.02154L5.85903-1.95301C5.65345-0.685267 4.79687 0.137053 3.32354 0.137053 1.30201 0.137053 0.71953-1.26774 0.51395-3.25502 0.171317-6.44151 3.97455-7.74352 5.55066-5.44787 5.68772-5.20803 5.72198-4.96818 5.7905-4.69408L4.69408-4.59129C4.55702-5.31082 4.14586-5.7905 3.28928-5.7905" fill="#3A414A" transform="matrix(1 0 0 1.00283 650.887 241.788)"/><path d="M3.42633-6.64709C5.55066-6.68135 6.33872-5.37934 6.33872-3.25502 6.37298-1.09643 5.41361 0.137053 3.39207 0.137053 1.37053 0.137053 0.548213-1.19922 0.51395-3.25502 0.51395-5.5164 1.47332-6.64709 3.42633-6.64709ZM3.39207-0.685267C4.89966-0.651003 5.20803-1.74743 5.20803-3.25502 5.20803-4.72834 4.93392-5.82477 3.4606-5.82477 1.98727-5.82477 1.64464-4.72834 1.64464-3.25502 1.64464-1.78169 1.98727-0.71953 3.39207-0.685267" fill="#3A414A" transform="matrix(1 0 0 1.00283 657.055 241.788)"/><path d="M0.82232 0 0.82232-8.94273 1.91875-8.94273 1.91875 0 0.82232 0" fill="#3A414A" transform="matrix(1 0 0 1.00283 667.331 241.788)"/><path d="M0.82232-7.91483 0.82232-8.94273 1.91875-8.94273 1.91875-7.91483 0.82232-7.91483ZM0.82232 0 0.82232-6.51004 1.91875-6.51004 1.91875 0 0.82232 0" fill="#3A414A" transform="matrix(1 0 0 1.00283 670.038 241.788)"/><path d="M3.94028-6.64709C5.75624-6.64709 6.30445-5.31082 6.33872-3.28928 6.33872-1.0279 5.55066 0.137053 3.94028 0.137053 2.87812 0.10279 2.26138-0.239843 1.91875-1.0279L1.85022 0 0.788057 0 0.82232-8.94273 1.91875-8.94273 1.91875-5.48213C2.26138-6.27019 2.87812-6.64709 3.94028-6.64709ZM3.66618-0.685267C5.03671-0.685267 5.20803-1.85022 5.20803-3.25502 5.20803-4.62555 5.03671-5.82477 3.66618-5.7905 2.22712-5.7905 1.91875-4.69408 1.91875-3.18649 1.91875-1.71317 2.26138-0.685267 3.66618-0.685267" fill="#3A414A" transform="matrix(1 0 0 1.00283 672.745 241.788)"/><path d="M497.756 203.154C497.756 201.315 499.246 199.824 501.086 199.824L583.236 199.824C585.073 199.824 586.566 201.315 586.566 203.154L586.566 263.101C586.566 264.941 585.073 266.432 583.236 266.432L501.086 266.432C499.246 266.432 497.756 264.941 497.756 263.101Z" stroke="#3A414A" stroke-width="0.555066" fill="#FCFCCA" transform="matrix(1 0 0 1.00283 96.0352 80.9507)"/><path d="M506.637 199.824 506.637 266.432M577.685 199.824 577.685 266.432" stroke="#3A414A" stroke-width="0.555066" fill="none" transform="matrix(1 0 0 1.00283 96.0352 80.9507)"/><path d="M7.26383-6.13314C6.9212-7.09251 6.06461-7.67499 4.7626-7.67499 2.74107-7.67499 1.78169-6.30445 1.78169-4.28292 1.78169-2.22712 2.77533-0.82232 4.83113-0.82232 6.30445-0.82232 6.95546-1.64464 7.50367-2.60401L8.42878-2.12433C7.81204-0.82232 6.68135 0.137053 4.7626 0.137053 2.02154 0.137053 0.753794-1.57611 0.61674-4.28292 0.41116-7.84631 4.00881-9.52521 7.02399-8.08615 7.67499-7.77778 8.08615-7.1953 8.36026-6.51004" fill="#3A414A" transform="matrix(1 0 0 1.00283 610.46 309.791)"/><path d="M3.63191-5.7905C1.16495-5.7905 2.12433-2.29564 1.95301 0L0.856584 0 0.856584-8.94273 1.95301-8.94273 1.91875-5.41361C2.32991-6.13314 2.87812-6.64709 4.00881-6.64709 7.05825-6.64709 5.82477-2.67254 6.06461 0L4.96818 0 4.96818-4.14586C5.03671-5.24229 4.69408-5.82477 3.63191-5.7905" fill="#3A414A" transform="matrix(1 0 0 1.00283 619.334 309.791)"/><path d="M3.42633-6.64709C5.58492-6.64709 6.37298-5.20803 6.30445-3.01517L1.6789-3.01517C1.6789-1.64464 2.15859-0.71953 3.49486-0.685267 4.38571-0.651003 4.96818-1.09643 5.17376-1.6789L6.13314-1.4048C5.75624-0.445423 4.86539 0.137053 3.49486 0.137053 1.50759 0.137053 0.479687-1.13069 0.51395-3.28928 0.548213-5.37934 1.4048-6.64709 3.42633-6.64709ZM5.20803-3.87176C5.41361-5.92756 2.60401-6.51004 1.88448-4.83113 1.78169-4.59129 1.6789-4.24865 1.6789-3.87176L5.20803-3.87176" fill="#3A414A" transform="matrix(1 0 0 1.00283 626.187 309.791)"/><path d="M3.28928-5.7905C1.91875-5.7905 1.64464-4.65981 1.64464-3.28928 1.64464-1.91875 1.95301-0.71953 3.28928-0.71953 4.1116-0.71953 4.69408-1.19922 4.7626-2.02154L5.85903-1.95301C5.65345-0.685267 4.79687 0.137053 3.32354 0.137053 1.30201 0.137053 0.71953-1.26774 0.51395-3.25502 0.171317-6.44151 3.97455-7.74352 5.55066-5.44787 5.68772-5.20803 5.72198-4.96818 5.7905-4.69408L4.69408-4.59129C4.55702-5.31082 4.14586-5.7905 3.28928-5.7905" fill="#3A414A" transform="matrix(1 0 0 1.00283 633.039 309.791)"/><path d="M4.89966 0 2.7068-2.98091 1.91875-2.32991 1.91875 0 0.82232 0 0.82232-8.94273 1.91875-8.94273 1.91875-3.35781 4.7626-6.51004 6.03035-6.51004 3.39207-3.70044 6.20166 0 4.89966 0" fill="#3A414A" transform="matrix(1 0 0 1.00283 639.207 309.791)"/><path d="M2.02154-1.61038C1.95301-0.788057 2.63828-0.61674 3.32354-0.856584L3.32354-0.0342633C2.19285 0.30837 0.92511 0.137053 0.92511-1.37053L0.92511-5.72198 0.171317-5.72198 0.171317-6.51004 0.993637-6.51004 1.30201-7.98336 2.02154-7.98336 2.02154-6.51004 3.22075-6.51004 3.22075-5.72198 2.02154-5.72198 2.02154-1.61038" fill="#3A414A" transform="matrix(1 0 0 1.00283 648.801 309.791)"/><path d="M3.63191-5.7905C1.16495-5.7905 2.12433-2.29564 1.95301 0L0.856584 0 0.856584-8.94273 1.95301-8.94273 1.91875-5.41361C2.32991-6.13314 2.87812-6.64709 4.00881-6.64709 7.05825-6.64709 5.82477-2.67254 6.06461 0L4.96818 0 4.96818-4.14586C5.03671-5.24229 4.69408-5.82477 3.63191-5.7905" fill="#3A414A" transform="matrix(1 0 0 1.00283 652.227 309.791)"/><path d="M3.42633-6.64709C5.58492-6.64709 6.37298-5.20803 6.30445-3.01517L1.6789-3.01517C1.6789-1.64464 2.15859-0.71953 3.49486-0.685267 4.38571-0.651003 4.96818-1.09643 5.17376-1.6789L6.13314-1.4048C5.75624-0.445423 4.86539 0.137053 3.49486 0.137053 1.50759 0.137053 0.479687-1.13069 0.51395-3.28928 0.548213-5.37934 1.4048-6.64709 3.42633-6.64709ZM5.20803-3.87176C5.41361-5.92756 2.60401-6.51004 1.88448-4.83113 1.78169-4.59129 1.6789-4.24865 1.6789-3.87176L5.20803-3.87176" fill="#3A414A" transform="matrix(1 0 0 1.00283 659.08 309.791)"/><path d="M3.28928-5.7905C1.91875-5.7905 1.64464-4.65981 1.64464-3.28928 1.64464-1.91875 1.95301-0.71953 3.28928-0.71953 4.1116-0.71953 4.69408-1.19922 4.7626-2.02154L5.85903-1.95301C5.65345-0.685267 4.79687 0.137053 3.32354 0.137053 1.30201 0.137053 0.71953-1.26774 0.51395-3.25502 0.171317-6.44151 3.97455-7.74352 5.55066-5.44787 5.68772-5.20803 5.72198-4.96818 5.7905-4.69408L4.69408-4.59129C4.55702-5.31082 4.14586-5.7905 3.28928-5.7905" fill="#3A414A" transform="matrix(1 0 0 1.00283 609.449 324.635)"/><path d="M3.42633-6.64709C5.55066-6.68135 6.33872-5.37934 6.33872-3.25502 6.37298-1.09643 5.41361 0.137053 3.39207 0.137053 1.37053 0.137053 0.548213-1.19922 0.51395-3.25502 0.51395-5.5164 1.47332-6.64709 3.42633-6.64709ZM3.39207-0.685267C4.89966-0.651003 5.20803-1.74743 5.20803-3.25502 5.20803-4.72834 4.93392-5.82477 3.4606-5.82477 1.98727-5.82477 1.64464-4.72834 1.64464-3.25502 1.64464-1.78169 1.98727-0.71953 3.39207-0.685267" fill="#3A414A" transform="matrix(1 0 0 1.00283 615.617 324.635)"/><path d="M3.42633-6.64709C5.55066-6.68135 6.33872-5.37934 6.33872-3.25502 6.37298-1.09643 5.41361 0.137053 3.39207 0.137053 1.37053 0.137053 0.548213-1.19922 0.51395-3.25502 0.51395-5.5164 1.47332-6.64709 3.42633-6.64709ZM3.39207-0.685267C4.89966-0.651003 5.20803-1.74743 5.20803-3.25502 5.20803-4.72834 4.93392-5.82477 3.4606-5.82477 1.98727-5.82477 1.64464-4.72834 1.64464-3.25502 1.64464-1.78169 1.98727-0.71953 3.39207-0.685267" fill="#3A414A" transform="matrix(1 0 0 1.00283 622.469 324.635)"/><path d="M3.90602-5.58492C1.23348-6.13314 2.09006-2.46696 1.95301 0L0.856584 0 0.82232-6.51004 1.85022-6.51004C1.88448-6.09888 1.81596-5.5164 1.91875-5.17376 2.12433-6.09888 2.7068-6.85267 3.90602-6.57856L3.90602-5.58492" fill="#3A414A" transform="matrix(1 0 0 1.00283 629.322 324.635)"/><path d="M2.91238-6.64709C3.97455-6.64709 4.55702-6.20166 4.96818-5.5164L4.93392-8.94273 6.03035-8.94273 6.06461 0 5.03671 0C4.96818-0.342633 5.03671-0.788057 4.93392-1.06216 4.59129-0.274107 3.97455 0.137053 2.91238 0.137053 1.09643 0.137053 0.548213-1.19922 0.51395-3.22075 0.51395-5.48213 1.30201-6.64709 2.91238-6.64709ZM3.22075-5.82477C1.85022-5.82477 1.64464-4.65981 1.64464-3.25502 1.64464-1.88448 1.85022-0.71953 3.18649-0.71953 4.62555-0.71953 4.93392-1.81596 4.93392-3.32354 4.93392-4.7626 4.62555-5.85903 3.22075-5.82477" fill="#3A414A" transform="matrix(1 0 0 1.00283 633.399 324.635)"/><path d="M0.82232-7.91483 0.82232-8.94273 1.91875-8.94273 1.91875-7.91483 0.82232-7.91483ZM0.82232 0 0.82232-6.51004 1.91875-6.51004 1.91875 0 0.82232 0" fill="#3A414A" transform="matrix(1 0 0 1.00283 640.252 324.635)"/><path d="M4.00881-6.64709C7.05825-6.78414 5.82477-2.67254 6.06461 0L4.96818 0 4.96818-4.14586C4.96818-5.20803 4.69408-5.82477 3.63191-5.7905 1.16495-5.72198 2.12433-2.29564 1.95301 0L0.856584 0 0.82232-6.51004 1.85022-6.51004C1.88448-6.1674 1.81596-5.68772 1.91875-5.41361 2.29564-6.1674 2.91238-6.61282 4.00881-6.64709" fill="#3A414A" transform="matrix(1 0 0 1.00283 642.959 324.635)"/><path d="M4.83113-1.23348C4.31718-0.51395 3.76897 0.171317 2.50122 0.137053 1.26774 0.10279 0.51395-0.582477 0.51395-1.81596 0.479687-4.00881 2.67254-3.97455 4.79687-3.97455 4.89966-5.17376 4.4885-5.82477 3.39207-5.82477 2.56975-5.7905 1.98727-5.58492 1.95301-4.7626L0.82232-4.86539C0.993637-6.13314 1.95301-6.64709 3.42633-6.64709 4.96818-6.64709 5.89329-5.96182 5.89329-4.45423L5.89329-1.64464C5.85903-0.959374 6.13314-0.548213 6.85267-0.71953L6.85267-0.0342633C5.7905 0.274107 4.7626-0.10279 4.83113-1.23348ZM1.64464-1.81596C1.64464-1.13069 2.0558-0.685267 2.74107-0.685267 4.14586-0.788057 4.89966-1.6789 4.79687-3.22075 3.32354-3.15223 1.64464-3.39207 1.64464-1.81596" fill="#3A414A" transform="matrix(1 0 0 1.00283 649.811 324.635)"/><path d="M2.02154-1.61038C1.95301-0.788057 2.63828-0.61674 3.32354-0.856584L3.32354-0.0342633C2.19285 0.30837 0.92511 0.137053 0.92511-1.37053L0.92511-5.72198 0.171317-5.72198 0.171317-6.51004 0.993637-6.51004 1.30201-7.98336 2.02154-7.98336 2.02154-6.51004 3.22075-6.51004 3.22075-5.72198 2.02154-5.72198 2.02154-1.61038" fill="#3A414A" transform="matrix(1 0 0 1.00283 656.664 324.635)"/><path d="M3.42633-6.64709C5.58492-6.64709 6.37298-5.20803 6.30445-3.01517L1.6789-3.01517C1.6789-1.64464 2.15859-0.71953 3.49486-0.685267 4.38571-0.651003 4.96818-1.09643 5.17376-1.6789L6.13314-1.4048C5.75624-0.445423 4.86539 0.137053 3.49486 0.137053 1.50759 0.137053 0.479687-1.13069 0.51395-3.28928 0.548213-5.37934 1.4048-6.64709 3.42633-6.64709ZM5.20803-3.87176C5.41361-5.92756 2.60401-6.51004 1.88448-4.83113 1.78169-4.59129 1.6789-4.24865 1.6789-3.87176L5.20803-3.87176" fill="#3A414A" transform="matrix(1 0 0 1.00283 660.09 324.635)"/><path d="M444.053 289.745C444.053 287.905 445.544 286.414 447.383 286.414L640.546 286.414C642.384 286.414 643.877 287.905 643.877 289.745L643.877 349.692C643.877 351.531 642.384 353.022 640.546 353.022L447.383 353.022C445.544 353.022 444.053 351.531 444.053 349.692Z" stroke="#3A414A" stroke-width="0.555066" fill="#FFD9D9" transform="matrix(1 0 0 1.00283 96.0352 80.9507)"/><path d="M464.035 286.414 464.035 353.022M623.894 286.414 623.894 353.022" stroke="#3A414A" stroke-width="0.555066" fill="none" transform="matrix(1 0 0 1.00283 96.0352 80.9507)"/><path d="M0.82232-7.91483 0.82232-8.94273 1.91875-8.94273 1.91875-7.91483 0.82232-7.91483ZM0.82232 0 0.82232-6.51004 1.91875-6.51004 1.91875 0 0.82232 0" fill="#3A414A" transform="matrix(1 0 0 1.00283 575.477 404.048)"/><path d="M3.4606-8.01762C2.39843-8.32599 2.02154-7.67499 2.15859-6.51004L3.4606-6.51004 3.4606-5.72198 2.15859-5.72198 2.15859 0 1.09643 0 1.09643-5.72198 0.171317-5.72198 0.171317-6.51004 1.09643-6.51004C0.856584-8.29173 1.6789-9.31963 3.4606-8.83994L3.4606-8.01762" fill="#3A414A" transform="matrix(1 0 0 1.00283 578.184 404.048)"/><path d="M2.98091 2.56975C1.6789 1.13069 0.753794-0.582477 0.753794-3.22075 0.753794-5.82477 1.71317-7.53794 2.98091-8.94273L4.04307-8.94273C2.74107-7.53794 1.85022-5.7905 1.85022-3.18649 1.85022-0.582477 2.74107 1.16495 4.04307 2.56975L2.98091 2.56975" fill="#3A414A" transform="matrix(1 0 0 1.00283 585.036 404.048)"/><path d="M6.40725 0 5.92756-2.46696 2.09006-2.46696 0.651003 0-0.61674 0 4.4885-8.49731 5.7905-8.49731 7.5722 0 6.40725 0ZM5.75624-3.39207 5.00245-7.60646 2.60401-3.39207 5.75624-3.39207" fill="#3A414A" transform="matrix(1 0 0 1.00283 589.114 404.048)"/><path d="M8.53157-6.27019C8.53157-4.62555 7.53794-3.80323 5.96182-3.63191L7.5722 0 6.33872 0 4.86539-3.52912 2.22712-3.52912 1.54185 0 0.376897 0 2.02154-8.49731C4.86539-8.42878 8.53157-9.07979 8.53157-6.27019ZM7.36662-6.1674C7.36662-8.05189 4.83113-7.50367 3.01517-7.5722L2.39843-4.41997C4.55702-4.45423 7.36662-3.97455 7.36662-6.1674" fill="#3A414A" transform="matrix(1 0 0 1.00283 597.337 404.048)"/><path d="M1.60695-3.78953C2.13461-4.94078 4.77289-5.03671 4.38914-3.09398L3.78953 0 3.02203 0 3.62164-3.35781C3.69359-4.26921 2.35047-4.12531 1.94273-3.64562 1.24719-2.80617 1.2232-1.24719 0.911405 0L0.143906 0 1.00734-4.55703 1.72687-4.55703" fill="#3A414A" transform="matrix(1 0 0 1.00283 606.211 405.78)"/><path d="M0.61674-2.80959 0.82232-3.76897 3.83749-3.76897 3.63191-2.80959 0.61674-2.80959" fill="#3A414A" transform="matrix(1 0 0 1.00283 615.805 404.048)"/><path d="M6.40725 0 5.92756-2.46696 2.09006-2.46696 0.651003 0-0.61674 0 4.4885-8.49731 5.7905-8.49731 7.5722 0 6.40725 0ZM5.75624-3.39207 5.00245-7.60646 2.60401-3.39207 5.75624-3.39207" fill="#3A414A" transform="matrix(1 0 0 1.00283 623.309 404.048)"/><path d="M8.53157-6.27019C8.53157-4.62555 7.53794-3.80323 5.96182-3.63191L7.5722 0 6.33872 0 4.86539-3.52912 2.22712-3.52912 1.54185 0 0.376897 0 2.02154-8.49731C4.86539-8.42878 8.53157-9.07979 8.53157-6.27019ZM7.36662-6.1674C7.36662-8.05189 4.83113-7.50367 3.01517-7.5722L2.39843-4.41997C4.55702-4.45423 7.36662-3.97455 7.36662-6.1674" fill="#3A414A" transform="matrix(1 0 0 1.00283 631.532 404.048)"/><path d="M1.60695-3.78953C2.13461-4.94078 4.77289-5.03671 4.38914-3.09398L3.78953 0 3.02203 0 3.62164-3.35781C3.69359-4.26921 2.35047-4.12531 1.94273-3.64562 1.24719-2.80617 1.2232-1.24719 0.911405 0L0.143906 0 1.00734-4.55703 1.72687-4.55703" fill="#3A414A" transform="matrix(1 0 0 1.00283 640.406 405.78)"/><path d="M0.431718-1.96672 0.575624-2.63828 2.68625-2.63828 2.54234-1.96672 0.431718-1.96672" fill="#3A414A" transform="matrix(1 0 0 1.00283 645.203 405.78)"/><path d="M0.215859 0 0.359765-0.647577 1.87078-0.647577 2.73422-5.15664 1.2232-4.22125 1.36711-4.96476 2.95008-5.94812 3.64562-5.94812 2.63828-0.647577 4.07734-0.647577 3.95742 0 0.215859 0" fill="#3A414A" transform="matrix(1 0 0 1.00283 648.057 405.78)"/><path d="M1.13069-8.94273C2.4327-7.53794 3.35781-5.7905 3.35781-3.18649 3.35781-0.582477 2.4327 1.16495 1.13069 2.56975L0.0685267 2.56975C1.33627 1.16495 2.26138-0.582477 2.26138-3.18649 2.26138-5.7905 1.33627-7.53794 0.0685267-8.94273L1.13069-8.94273" fill="#3A414A" transform="matrix(1 0 0 1.00283 652.854 404.048)"/><path d="M0.61674-0.92511 0.61674-1.85022 5.7905-4.04307 0.61674-6.27019 0.61674-7.1953 6.61282-4.65981 6.61282-3.42633" fill="#3A414A" transform="matrix(1 0 0 1.00283 660.36 404.048)"/><path d="M0.92511 0 0.92511-0.92511 3.11796-0.92511 3.11796-7.43515 1.19922-6.09888 1.19922-7.09251 3.18649-8.49731 4.18013-8.49731 4.18013-0.92511 6.27019-0.92511 6.27019 0 0.92511 0" fill="#3A414A" transform="matrix(1 0 0 1.00283 670.978 404.048)"/><path d="M3.4606-8.6001C5.7905-8.6001 6.37298-6.71562 6.37298-4.24865 6.37298-1.78169 5.68772 0.137053 3.42633 0.137053 1.13069 0.137053 0.479687-1.78169 0.479687-4.24865 0.479687-6.74988 1.06216-8.6001 3.4606-8.6001ZM3.42633-0.753794C5.03671-0.753794 5.27655-2.4327 5.27655-4.24865 5.27655-6.06461 5.1395-7.74352 3.4606-7.74352 1.71317-7.74352 1.57611-6.09888 1.57611-4.24865 1.57611-2.4327 1.74743-0.753794 3.42633-0.753794" fill="#3A414A" transform="matrix(1 0 0 1.00283 677.831 404.048)"/><path d="M3.28928-5.7905C1.91875-5.7905 1.64464-4.65981 1.64464-3.28928 1.64464-1.91875 1.95301-0.71953 3.28928-0.71953 4.1116-0.71953 4.69408-1.19922 4.7626-2.02154L5.85903-1.95301C5.65345-0.685267 4.79687 0.137053 3.32354 0.137053 1.30201 0.137053 0.71953-1.26774 0.51395-3.25502 0.171317-6.44151 3.97455-7.74352 5.55066-5.44787 5.68772-5.20803 5.72198-4.96818 5.7905-4.69408L4.69408-4.59129C4.55702-5.31082 4.14586-5.7905 3.28928-5.7905" fill="#3A414A" transform="matrix(1 0 0 1.00283 688.113 404.048)"/><path d="M7.1953-5.7905C4.89966-5.68772 5.89329-2.19285 5.68772 0L4.62555 0 4.62555-4.14586C4.62555-5.1395 4.45423-5.85903 3.42633-5.7905 1.16495-5.65345 2.12433-2.22712 1.91875 0L0.856584 0 0.82232-6.51004 1.85022-6.51004C1.88448-6.1674 1.81596-5.68772 1.91875-5.41361 2.26138-6.9212 5.31082-7.12678 5.58492-5.41361 5.96182-6.13314 6.51004-6.61282 7.5722-6.64709 10.4846-6.71562 9.18258-2.56975 9.45668 0L8.39452 0 8.39452-4.14586C8.39452-5.1395 8.2232-5.82477 7.1953-5.7905" fill="#3A414A" transform="matrix(1 0 0 1.00283 694.281 404.048)"/><path d="M366.344 358.573C366.344 356.733 367.835 355.242 369.674 355.242L429.621 355.242C431.461 355.242 432.952 356.733 432.952 358.573L432.952 391.877C432.953 393.981 431.997 395.973 430.354 397.289L402.245 419.769C400.726 420.982 398.569 420.982 397.05 419.769L368.941 397.289C367.298 395.973 366.342 393.981 366.344 391.877Z" stroke="#3A414A" stroke-width="0.555066" fill="#FE7070" transform="matrix(1 0 0 1.00283 96.0352 80.9507)"/><path d="M1.0279 0 1.0279-8.49731 7.43515-8.49731 7.43515-7.53794 2.15859-7.53794 2.15859-4.83113 7.09251-4.83113 7.09251-3.90602 2.15859-3.90602 2.15859-0.92511 7.70925-0.92511 7.70925 0 1.0279 0" fill="#3A414A" transform="matrix(1 0 0 1.00283 473.772 463.272)"/><path d="M4.83113 0 3.0837-2.67254 1.30201 0 0.137053 0 2.46696-3.35781 0.239843-6.51004 1.43906-6.51004 3.0837-3.97455 4.69408-6.51004 5.89329-6.51004 3.70044-3.35781 6.03035 0 4.83113 0" fill="#3A414A" transform="matrix(1 0 0 1.00283 481.995 463.272)"/><path d="M3.28928-5.7905C1.91875-5.7905 1.64464-4.65981 1.64464-3.28928 1.64464-1.91875 1.95301-0.71953 3.28928-0.71953 4.1116-0.71953 4.69408-1.19922 4.7626-2.02154L5.85903-1.95301C5.65345-0.685267 4.79687 0.137053 3.32354 0.137053 1.30201 0.137053 0.71953-1.26774 0.51395-3.25502 0.171317-6.44151 3.97455-7.74352 5.55066-5.44787 5.68772-5.20803 5.72198-4.96818 5.7905-4.69408L4.69408-4.59129C4.55702-5.31082 4.14586-5.7905 3.28928-5.7905" fill="#3A414A" transform="matrix(1 0 0 1.00283 488.162 463.272)"/><path d="M0.82232 0 0.82232-8.94273 1.91875-8.94273 1.91875 0 0.82232 0" fill="#3A414A" transform="matrix(1 0 0 1.00283 494.33 463.272)"/><path d="M2.87812 0.137053C-0.171317 0.274107 1.0279-3.83749 0.788057-6.51004L1.88448-6.51004 1.88448-2.39843C1.88448-1.33627 2.12433-0.685267 3.22075-0.71953 5.68772-0.788057 4.7626-4.18013 4.93392-6.51004L5.99609-6.51004 6.03035 0 5.00245 0C4.96818-0.342633 5.03671-0.856584 4.93392-1.13069 4.55702-0.376897 3.97455 0.10279 2.87812 0.137053" fill="#3A414A" transform="matrix(1 0 0 1.00283 497.036 463.272)"/><path d="M2.91238-6.64709C3.97455-6.64709 4.55702-6.20166 4.96818-5.5164L4.93392-8.94273 6.03035-8.94273 6.06461 0 5.03671 0C4.96818-0.342633 5.03671-0.788057 4.93392-1.06216 4.59129-0.274107 3.97455 0.137053 2.91238 0.137053 1.09643 0.137053 0.548213-1.19922 0.51395-3.22075 0.51395-5.48213 1.30201-6.64709 2.91238-6.64709ZM3.22075-5.82477C1.85022-5.82477 1.64464-4.65981 1.64464-3.25502 1.64464-1.88448 1.85022-0.71953 3.18649-0.71953 4.62555-0.71953 4.93392-1.81596 4.93392-3.32354 4.93392-4.7626 4.62555-5.85903 3.22075-5.82477" fill="#3A414A" transform="matrix(1 0 0 1.00283 503.889 463.272)"/><path d="M3.42633-6.64709C5.58492-6.64709 6.37298-5.20803 6.30445-3.01517L1.6789-3.01517C1.6789-1.64464 2.15859-0.71953 3.49486-0.685267 4.38571-0.651003 4.96818-1.09643 5.17376-1.6789L6.13314-1.4048C5.75624-0.445423 4.86539 0.137053 3.49486 0.137053 1.50759 0.137053 0.479687-1.13069 0.51395-3.28928 0.548213-5.37934 1.4048-6.64709 3.42633-6.64709ZM5.20803-3.87176C5.41361-5.92756 2.60401-6.51004 1.88448-4.83113 1.78169-4.59129 1.6789-4.24865 1.6789-3.87176L5.20803-3.87176" fill="#3A414A" transform="matrix(1 0 0 1.00283 510.742 463.272)"/><path d="M2.02154-1.61038C1.95301-0.788057 2.63828-0.61674 3.32354-0.856584L3.32354-0.0342633C2.19285 0.30837 0.92511 0.137053 0.92511-1.37053L0.92511-5.72198 0.171317-5.72198 0.171317-6.51004 0.993637-6.51004 1.30201-7.98336 2.02154-7.98336 2.02154-6.51004 3.22075-6.51004 3.22075-5.72198 2.02154-5.72198 2.02154-1.61038" fill="#3A414A" transform="matrix(1 0 0 1.00283 470.348 478.116)"/><path d="M3.63191-5.7905C1.16495-5.7905 2.12433-2.29564 1.95301 0L0.856584 0 0.856584-8.94273 1.95301-8.94273 1.91875-5.41361C2.32991-6.13314 2.87812-6.64709 4.00881-6.64709 7.05825-6.64709 5.82477-2.67254 6.06461 0L4.96818 0 4.96818-4.14586C5.03671-5.24229 4.69408-5.82477 3.63191-5.7905" fill="#3A414A" transform="matrix(1 0 0 1.00283 473.774 478.116)"/><path d="M3.42633-6.64709C5.58492-6.64709 6.37298-5.20803 6.30445-3.01517L1.6789-3.01517C1.6789-1.64464 2.15859-0.71953 3.49486-0.685267 4.38571-0.651003 4.96818-1.09643 5.17376-1.6789L6.13314-1.4048C5.75624-0.445423 4.86539 0.137053 3.49486 0.137053 1.50759 0.137053 0.479687-1.13069 0.51395-3.28928 0.548213-5.37934 1.4048-6.64709 3.42633-6.64709ZM5.20803-3.87176C5.41361-5.92756 2.60401-6.51004 1.88448-4.83113 1.78169-4.59129 1.6789-4.24865 1.6789-3.87176L5.20803-3.87176" fill="#3A414A" transform="matrix(1 0 0 1.00283 480.627 478.116)"/><path d="M1.0279 0 1.0279-8.49731 2.15859-8.49731 2.15859-0.92511 6.44151-0.92511 6.44151 0 1.0279 0" fill="#3A414A" transform="matrix(1 0 0 1.00283 490.906 478.116)"/><path d="M4.83113-1.23348C4.31718-0.51395 3.76897 0.171317 2.50122 0.137053 1.26774 0.10279 0.51395-0.582477 0.51395-1.81596 0.479687-4.00881 2.67254-3.97455 4.79687-3.97455 4.89966-5.17376 4.4885-5.82477 3.39207-5.82477 2.56975-5.7905 1.98727-5.58492 1.95301-4.7626L0.82232-4.86539C0.993637-6.13314 1.95301-6.64709 3.42633-6.64709 4.96818-6.64709 5.89329-5.96182 5.89329-4.45423L5.89329-1.64464C5.85903-0.959374 6.13314-0.548213 6.85267-0.71953L6.85267-0.0342633C5.7905 0.274107 4.7626-0.10279 4.83113-1.23348ZM1.64464-1.81596C1.64464-1.13069 2.0558-0.685267 2.74107-0.685267 4.14586-0.788057 4.89966-1.6789 4.79687-3.22075 3.32354-3.15223 1.64464-3.39207 1.64464-1.81596" fill="#3A414A" transform="matrix(1 0 0 1.00283 497.759 478.116)"/><path d="M3.94028-6.64709C5.75624-6.64709 6.30445-5.31082 6.33872-3.28928 6.33872-1.0279 5.55066 0.137053 3.94028 0.137053 2.87812 0.10279 2.26138-0.239843 1.91875-1.0279L1.85022 0 0.788057 0 0.82232-8.94273 1.91875-8.94273 1.91875-5.48213C2.26138-6.27019 2.87812-6.64709 3.94028-6.64709ZM3.66618-0.685267C5.03671-0.685267 5.20803-1.85022 5.20803-3.25502 5.20803-4.62555 5.03671-5.82477 3.66618-5.7905 2.22712-5.7905 1.91875-4.69408 1.91875-3.18649 1.91875-1.71317 2.26138-0.685267 3.66618-0.685267" fill="#3A414A" transform="matrix(1 0 0 1.00283 504.611 478.116)"/><path d="M3.42633-6.64709C5.58492-6.64709 6.37298-5.20803 6.30445-3.01517L1.6789-3.01517C1.6789-1.64464 2.15859-0.71953 3.49486-0.685267 4.38571-0.651003 4.96818-1.09643 5.17376-1.6789L6.13314-1.4048C5.75624-0.445423 4.86539 0.137053 3.49486 0.137053 1.50759 0.137053 0.479687-1.13069 0.51395-3.28928 0.548213-5.37934 1.4048-6.64709 3.42633-6.64709ZM5.20803-3.87176C5.41361-5.92756 2.60401-6.51004 1.88448-4.83113 1.78169-4.59129 1.6789-4.24865 1.6789-3.87176L5.20803-3.87176" fill="#3A414A" transform="matrix(1 0 0 1.00283 511.464 478.116)"/><path d="M0.82232 0 0.82232-8.94273 1.91875-8.94273 1.91875 0 0.82232 0" fill="#3A414A" transform="matrix(1 0 0 1.00283 518.317 478.116)"/><path d="M721.586 412.969C721.586 416.649 706.677 419.63 688.282 419.63 669.887 419.63 654.978 416.649 654.978 412.969L654.978 359.683C654.978 356.003 669.887 353.022 688.282 353.022 706.677 353.022 721.586 356.003 721.586 359.683Z" stroke="#3A414A" stroke-width="0.555066" fill="#C3F7C8" transform="matrix(1 0 0 1.00283 96.0352 80.9507)"/><path d="M721.586 359.683C721.586 363.363 706.677 366.344 688.282 366.344 669.887 366.344 654.978 363.363 654.978 359.683" stroke="#3A414A" stroke-width="0.555066" fill="none" transform="matrix(1 0 0 1.00283 96.0352 80.9507)"/><path d="M1.13069 0 1.13069-8.49731 2.29564-8.49731 2.29564 0 1.13069 0" fill="#3A414A" transform="matrix(1 0 0 1.00283 754.183 469.987)"/><path d="M4.00881-6.64709C7.05825-6.78414 5.82477-2.67254 6.06461 0L4.96818 0 4.96818-4.14586C4.96818-5.20803 4.69408-5.82477 3.63191-5.7905 1.16495-5.72198 2.12433-2.29564 1.95301 0L0.856584 0 0.82232-6.51004 1.85022-6.51004C1.88448-6.1674 1.81596-5.68772 1.91875-5.41361 2.29564-6.1674 2.91238-6.61282 4.00881-6.64709" fill="#3A414A" transform="matrix(1 0 0 1.00283 757.609 469.987)"/><path d="M3.28928-5.7905C1.91875-5.7905 1.64464-4.65981 1.64464-3.28928 1.64464-1.91875 1.95301-0.71953 3.28928-0.71953 4.1116-0.71953 4.69408-1.19922 4.7626-2.02154L5.85903-1.95301C5.65345-0.685267 4.79687 0.137053 3.32354 0.137053 1.30201 0.137053 0.71953-1.26774 0.51395-3.25502 0.171317-6.44151 3.97455-7.74352 5.55066-5.44787 5.68772-5.20803 5.72198-4.96818 5.7905-4.69408L4.69408-4.59129C4.55702-5.31082 4.14586-5.7905 3.28928-5.7905" fill="#3A414A" transform="matrix(1 0 0 1.00283 764.462 469.987)"/><path d="M0.82232 0 0.82232-8.94273 1.91875-8.94273 1.91875 0 0.82232 0" fill="#3A414A" transform="matrix(1 0 0 1.00283 770.629 469.987)"/><path d="M2.87812 0.137053C-0.171317 0.274107 1.0279-3.83749 0.788057-6.51004L1.88448-6.51004 1.88448-2.39843C1.88448-1.33627 2.12433-0.685267 3.22075-0.71953 5.68772-0.788057 4.7626-4.18013 4.93392-6.51004L5.99609-6.51004 6.03035 0 5.00245 0C4.96818-0.342633 5.03671-0.856584 4.93392-1.13069 4.55702-0.376897 3.97455 0.10279 2.87812 0.137053" fill="#3A414A" transform="matrix(1 0 0 1.00283 773.336 469.987)"/><path d="M2.91238-6.64709C3.97455-6.64709 4.55702-6.20166 4.96818-5.5164L4.93392-8.94273 6.03035-8.94273 6.06461 0 5.03671 0C4.96818-0.342633 5.03671-0.788057 4.93392-1.06216 4.59129-0.274107 3.97455 0.137053 2.91238 0.137053 1.09643 0.137053 0.548213-1.19922 0.51395-3.22075 0.51395-5.48213 1.30201-6.64709 2.91238-6.64709ZM3.22075-5.82477C1.85022-5.82477 1.64464-4.65981 1.64464-3.25502 1.64464-1.88448 1.85022-0.71953 3.18649-0.71953 4.62555-0.71953 4.93392-1.81596 4.93392-3.32354 4.93392-4.7626 4.62555-5.85903 3.22075-5.82477" fill="#3A414A" transform="matrix(1 0 0 1.00283 780.189 469.987)"/><path d="M3.42633-6.64709C5.58492-6.64709 6.37298-5.20803 6.30445-3.01517L1.6789-3.01517C1.6789-1.64464 2.15859-0.71953 3.49486-0.685267 4.38571-0.651003 4.96818-1.09643 5.17376-1.6789L6.13314-1.4048C5.75624-0.445423 4.86539 0.137053 3.49486 0.137053 1.50759 0.137053 0.479687-1.13069 0.51395-3.28928 0.548213-5.37934 1.4048-6.64709 3.42633-6.64709ZM5.20803-3.87176C5.41361-5.92756 2.60401-6.51004 1.88448-4.83113 1.78169-4.59129 1.6789-4.24865 1.6789-3.87176L5.20803-3.87176" fill="#3A414A" transform="matrix(1 0 0 1.00283 787.041 469.987)"/><path d="M2.02154-1.61038C1.95301-0.788057 2.63828-0.61674 3.32354-0.856584L3.32354-0.0342633C2.19285 0.30837 0.92511 0.137053 0.92511-1.37053L0.92511-5.72198 0.171317-5.72198 0.171317-6.51004 0.993637-6.51004 1.30201-7.98336 2.02154-7.98336 2.02154-6.51004 3.22075-6.51004 3.22075-5.72198 2.02154-5.72198 2.02154-1.61038" fill="#3A414A" transform="matrix(1 0 0 1.00283 797.322 469.987)"/><path d="M3.63191-5.7905C1.16495-5.7905 2.12433-2.29564 1.95301 0L0.856584 0 0.856584-8.94273 1.95301-8.94273 1.91875-5.41361C2.32991-6.13314 2.87812-6.64709 4.00881-6.64709 7.05825-6.64709 5.82477-2.67254 6.06461 0L4.96818 0 4.96818-4.14586C5.03671-5.24229 4.69408-5.82477 3.63191-5.7905" fill="#3A414A" transform="matrix(1 0 0 1.00283 800.749 469.987)"/><path d="M3.42633-6.64709C5.58492-6.64709 6.37298-5.20803 6.30445-3.01517L1.6789-3.01517C1.6789-1.64464 2.15859-0.71953 3.49486-0.685267 4.38571-0.651003 4.96818-1.09643 5.17376-1.6789L6.13314-1.4048C5.75624-0.445423 4.86539 0.137053 3.49486 0.137053 1.50759 0.137053 0.479687-1.13069 0.51395-3.28928 0.548213-5.37934 1.4048-6.64709 3.42633-6.64709ZM5.20803-3.87176C5.41361-5.92756 2.60401-6.51004 1.88448-4.83113 1.78169-4.59129 1.6789-4.24865 1.6789-3.87176L5.20803-3.87176" fill="#3A414A" transform="matrix(1 0 0 1.00283 807.601 469.987)"/><path d="M0.82232 0 0.82232-8.94273 1.91875-8.94273 1.91875 0 0.82232 0" fill="#3A414A" transform="matrix(1 0 0 1.00283 771.329 484.83)"/><path d="M4.83113-1.23348C4.31718-0.51395 3.76897 0.171317 2.50122 0.137053 1.26774 0.10279 0.51395-0.582477 0.51395-1.81596 0.479687-4.00881 2.67254-3.97455 4.79687-3.97455 4.89966-5.17376 4.4885-5.82477 3.39207-5.82477 2.56975-5.7905 1.98727-5.58492 1.95301-4.7626L0.82232-4.86539C0.993637-6.13314 1.95301-6.64709 3.42633-6.64709 4.96818-6.64709 5.89329-5.96182 5.89329-4.45423L5.89329-1.64464C5.85903-0.959374 6.13314-0.548213 6.85267-0.71953L6.85267-0.0342633C5.7905 0.274107 4.7626-0.10279 4.83113-1.23348ZM1.64464-1.81596C1.64464-1.13069 2.0558-0.685267 2.74107-0.685267 4.14586-0.788057 4.89966-1.6789 4.79687-3.22075 3.32354-3.15223 1.64464-3.39207 1.64464-1.81596" fill="#3A414A" transform="matrix(1 0 0 1.00283 774.035 484.83)"/><path d="M3.94028-6.64709C5.75624-6.64709 6.30445-5.31082 6.33872-3.28928 6.33872-1.0279 5.55066 0.137053 3.94028 0.137053 2.87812 0.10279 2.26138-0.239843 1.91875-1.0279L1.85022 0 0.788057 0 0.82232-8.94273 1.91875-8.94273 1.91875-5.48213C2.26138-6.27019 2.87812-6.64709 3.94028-6.64709ZM3.66618-0.685267C5.03671-0.685267 5.20803-1.85022 5.20803-3.25502 5.20803-4.62555 5.03671-5.82477 3.66618-5.7905 2.22712-5.7905 1.91875-4.69408 1.91875-3.18649 1.91875-1.71317 2.26138-0.685267 3.66618-0.685267" fill="#3A414A" transform="matrix(1 0 0 1.00283 780.888 484.83)"/><path d="M3.42633-6.64709C5.58492-6.64709 6.37298-5.20803 6.30445-3.01517L1.6789-3.01517C1.6789-1.64464 2.15859-0.71953 3.49486-0.685267 4.38571-0.651003 4.96818-1.09643 5.17376-1.6789L6.13314-1.4048C5.75624-0.445423 4.86539 0.137053 3.49486 0.137053 1.50759 0.137053 0.479687-1.13069 0.51395-3.28928 0.548213-5.37934 1.4048-6.64709 3.42633-6.64709ZM5.20803-3.87176C5.41361-5.92756 2.60401-6.51004 1.88448-4.83113 1.78169-4.59129 1.6789-4.24865 1.6789-3.87176L5.20803-3.87176" fill="#3A414A" transform="matrix(1 0 0 1.00283 787.741 484.83)"/><path d="M0.82232 0 0.82232-8.94273 1.91875-8.94273 1.91875 0 0.82232 0" fill="#3A414A" transform="matrix(1 0 0 1.00283 794.593 484.83)"/><path d="M443.498 319.718 402.978 319.718C401.138 319.718 399.648 321.209 399.648 323.048L399.648 345.873" stroke="#3A414A" stroke-width="0.555066" fill="none" transform="matrix(1 0 0 1.00283 96.0352 80.9507)"/><path d="M443.775 319.996 443.498 319.996 443.498 319.441 443.775 319.441Z" stroke="#3A414A" stroke-width="0.0277533" fill="#3A414A" transform="matrix(1 0 0 1.00283 96.0352 80.9507)"/><path d="M399.648 354.066 397.078 346.15 402.218 346.15Z" stroke="#3A414A" stroke-width="0.555066" fill="#3A414A" transform="matrix(1 0 0 1.00283 96.0352 80.9507)"/><path d="M644.432 319.718 684.952 319.718C686.789 319.718 688.282 321.209 688.282 323.048L688.282 343.653" stroke="#3A414A" stroke-width="0.555066" fill="none" transform="matrix(1 0 0 1.00283 96.0352 80.9507)"/><path d="M644.432 319.996 644.154 319.996 644.154 319.441 644.432 319.441Z" stroke="#3A414A" stroke-width="0.0277533" fill="#3A414A" transform="matrix(1 0 0 1.00283 96.0352 80.9507)"/><path d="M688.282 351.845 685.712 343.93 690.857 343.93Z" stroke="#3A414A" stroke-width="0.555066" fill="#3A414A" transform="matrix(1 0 0 1.00283 96.0352 80.9507)"/><path d="M542.161 266.987 542.161 277.045" stroke="#3A414A" stroke-width="0.555066" fill="none" transform="matrix(1 0 0 1.00283 96.0352 80.9507)"/><path d="M542.438 266.987 541.883 266.987 541.883 266.709 542.438 266.709Z" stroke="#3A414A" stroke-width="0.0277533" fill="#3A414A" transform="matrix(1 0 0 1.00283 96.0352 80.9507)"/><path d="M542.161 285.237 539.591 277.322 544.731 277.322Z" stroke="#3A414A" stroke-width="0.555066" fill="#3A414A" transform="matrix(1 0 0 1.00283 96.0352 80.9507)"/><path d="M542.161 180.396 542.161 190.454" stroke="#3A414A" stroke-width="0.555066" fill="none" transform="matrix(1 0 0 1.00283 96.0352 80.9507)"/><path d="M542.438 180.396 541.883 180.396 541.883 180.119 542.438 180.119Z" stroke="#3A414A" stroke-width="0.0277533" fill="#3A414A" transform="matrix(1 0 0 1.00283 96.0352 80.9507)"/><path d="M542.161 198.647 539.591 190.732 544.731 190.732Z" stroke="#3A414A" stroke-width="0.555066" fill="#3A414A" transform="matrix(1 0 0 1.00283 96.0352 80.9507)"/><path d="M566.167 444.053C578.434 444.053 588.37 453.989 588.37 466.256 588.37 478.522 578.434 488.458 566.167 488.458L521.762 488.458C509.495 488.458 499.56 478.522 499.56 466.256 499.56 453.989 509.495 444.053 521.762 444.053Z" stroke="#3A414A" stroke-width="0.555066" fill="#DFE3E8" transform="matrix(1 0 0 1.00283 96.0352 80.9507)"/><path d="M7.02399 0 6.06461-2.46696 2.19285-2.46696 1.23348 0 0.0342633 0 3.49486-8.49731 4.79687-8.49731 8.18894 0 7.02399 0ZM5.72198-3.39207 4.1116-7.60646C3.70044-6.06461 3.04944-4.79687 2.53549-3.39207L5.72198-3.39207" fill="#3A414A" transform="matrix(1 0 0 1.00283 608.857 543.811)"/><path d="M2.91238-6.64709C3.97455-6.64709 4.55702-6.20166 4.96818-5.5164L4.93392-8.94273 6.03035-8.94273 6.06461 0 5.03671 0C4.96818-0.342633 5.03671-0.788057 4.93392-1.06216 4.59129-0.274107 3.97455 0.137053 2.91238 0.137053 1.09643 0.137053 0.548213-1.19922 0.51395-3.22075 0.51395-5.48213 1.30201-6.64709 2.91238-6.64709ZM3.22075-5.82477C1.85022-5.82477 1.64464-4.65981 1.64464-3.25502 1.64464-1.88448 1.85022-0.71953 3.18649-0.71953 4.62555-0.71953 4.93392-1.81596 4.93392-3.32354 4.93392-4.7626 4.62555-5.85903 3.22075-5.82477" fill="#3A414A" transform="matrix(1 0 0 1.00283 617.081 543.811)"/><path d="M2.91238-6.64709C3.97455-6.64709 4.55702-6.20166 4.96818-5.5164L4.93392-8.94273 6.03035-8.94273 6.06461 0 5.03671 0C4.96818-0.342633 5.03671-0.788057 4.93392-1.06216 4.59129-0.274107 3.97455 0.137053 2.91238 0.137053 1.09643 0.137053 0.548213-1.19922 0.51395-3.22075 0.51395-5.48213 1.30201-6.64709 2.91238-6.64709ZM3.22075-5.82477C1.85022-5.82477 1.64464-4.65981 1.64464-3.25502 1.64464-1.88448 1.85022-0.71953 3.18649-0.71953 4.62555-0.71953 4.93392-1.81596 4.93392-3.32354 4.93392-4.7626 4.62555-5.85903 3.22075-5.82477" fill="#3A414A" transform="matrix(1 0 0 1.00283 623.933 543.811)"/><path d="M7.1953-5.7905C4.89966-5.68772 5.89329-2.19285 5.68772 0L4.62555 0 4.62555-4.14586C4.62555-5.1395 4.45423-5.85903 3.42633-5.7905 1.16495-5.65345 2.12433-2.22712 1.91875 0L0.856584 0 0.82232-6.51004 1.85022-6.51004C1.88448-6.1674 1.81596-5.68772 1.91875-5.41361 2.26138-6.9212 5.31082-7.12678 5.58492-5.41361 5.96182-6.13314 6.51004-6.61282 7.5722-6.64709 10.4846-6.71562 9.18258-2.56975 9.45668 0L8.39452 0 8.39452-4.14586C8.39452-5.1395 8.2232-5.82477 7.1953-5.7905" fill="#3A414A" transform="matrix(1 0 0 1.00283 634.212 543.811)"/><path d="M3.42633-6.64709C5.55066-6.68135 6.33872-5.37934 6.33872-3.25502 6.37298-1.09643 5.41361 0.137053 3.39207 0.137053 1.37053 0.137053 0.548213-1.19922 0.51395-3.25502 0.51395-5.5164 1.47332-6.64709 3.42633-6.64709ZM3.39207-0.685267C4.89966-0.651003 5.20803-1.74743 5.20803-3.25502 5.20803-4.72834 4.93392-5.82477 3.4606-5.82477 1.98727-5.82477 1.64464-4.72834 1.64464-3.25502 1.64464-1.78169 1.98727-0.71953 3.39207-0.685267" fill="#3A414A" transform="matrix(1 0 0 1.00283 644.457 543.811)"/><path d="M2.02154-1.61038C1.95301-0.788057 2.63828-0.61674 3.32354-0.856584L3.32354-0.0342633C2.19285 0.30837 0.92511 0.137053 0.92511-1.37053L0.92511-5.72198 0.171317-5.72198 0.171317-6.51004 0.993637-6.51004 1.30201-7.98336 2.02154-7.98336 2.02154-6.51004 3.22075-6.51004 3.22075-5.72198 2.02154-5.72198 2.02154-1.61038" fill="#3A414A" transform="matrix(1 0 0 1.00283 651.31 543.811)"/><path d="M0.82232-7.91483 0.82232-8.94273 1.91875-8.94273 1.91875-7.91483 0.82232-7.91483ZM0.82232 0 0.82232-6.51004 1.91875-6.51004 1.91875 0 0.82232 0" fill="#3A414A" transform="matrix(1 0 0 1.00283 654.736 543.811)"/><path d="M3.42633-6.64709C5.55066-6.68135 6.33872-5.37934 6.33872-3.25502 6.37298-1.09643 5.41361 0.137053 3.39207 0.137053 1.37053 0.137053 0.548213-1.19922 0.51395-3.25502 0.51395-5.5164 1.47332-6.64709 3.42633-6.64709ZM3.39207-0.685267C4.89966-0.651003 5.20803-1.74743 5.20803-3.25502 5.20803-4.72834 4.93392-5.82477 3.4606-5.82477 1.98727-5.82477 1.64464-4.72834 1.64464-3.25502 1.64464-1.78169 1.98727-0.71953 3.39207-0.685267" fill="#3A414A" transform="matrix(1 0 0 1.00283 657.443 543.811)"/><path d="M4.00881-6.64709C7.05825-6.78414 5.82477-2.67254 6.06461 0L4.96818 0 4.96818-4.14586C4.96818-5.20803 4.69408-5.82477 3.63191-5.7905 1.16495-5.72198 2.12433-2.29564 1.95301 0L0.856584 0 0.82232-6.51004 1.85022-6.51004C1.88448-6.1674 1.81596-5.68772 1.91875-5.41361 2.29564-6.1674 2.91238-6.61282 4.00881-6.64709" fill="#3A414A" transform="matrix(1 0 0 1.00283 664.296 543.811)"/><path d="M3.94028-6.64709C5.75624-6.64709 6.30445-5.31082 6.33872-3.28928 6.33872-1.0279 5.55066 0.137053 3.94028 0.137053 2.87812 0.10279 2.26138-0.239843 1.91875-1.0279L1.85022 0 0.788057 0 0.82232-8.94273 1.91875-8.94273 1.91875-5.48213C2.26138-6.27019 2.87812-6.64709 3.94028-6.64709ZM3.66618-0.685267C5.03671-0.685267 5.20803-1.85022 5.20803-3.25502 5.20803-4.62555 5.03671-5.82477 3.66618-5.7905 2.22712-5.7905 1.91875-4.69408 1.91875-3.18649 1.91875-1.71317 2.26138-0.685267 3.66618-0.685267" fill="#3A414A" transform="matrix(1 0 0 1.00283 629.758 558.654)"/><path d="M0.82232 0 0.82232-8.94273 1.91875-8.94273 1.91875 0 0.82232 0" fill="#3A414A" transform="matrix(1 0 0 1.00283 636.611 558.654)"/><path d="M2.87812 0.137053C-0.171317 0.274107 1.0279-3.83749 0.788057-6.51004L1.88448-6.51004 1.88448-2.39843C1.88448-1.33627 2.12433-0.685267 3.22075-0.71953 5.68772-0.788057 4.7626-4.18013 4.93392-6.51004L5.99609-6.51004 6.03035 0 5.00245 0C4.96818-0.342633 5.03671-0.856584 4.93392-1.13069 4.55702-0.376897 3.97455 0.10279 2.87812 0.137053" fill="#3A414A" transform="matrix(1 0 0 1.00283 639.317 558.654)"/><path d="M3.90602-5.58492C1.23348-6.13314 2.09006-2.46696 1.95301 0L0.856584 0 0.82232-6.51004 1.85022-6.51004C1.88448-6.09888 1.81596-5.5164 1.91875-5.17376 2.12433-6.09888 2.7068-6.85267 3.90602-6.57856L3.90602-5.58492" fill="#3A414A" transform="matrix(1 0 0 1.00283 646.17 558.654)"/><path d="M688.282 420.185 688.282 428.511C688.282 430.351 686.789 431.841 684.952 431.841L546.807 431.841C545.237 431.841 543.965 433.114 543.965 434.683" stroke="#3A414A" stroke-width="0.555066" fill="none" transform="matrix(1 0 0 1.00283 96.0352 80.9507)"/><path d="M688.282 419.908 688.56 419.896 688.56 420.191 688.004 420.191 688.004 419.902Z" stroke="#3A414A" stroke-width="0.0277533" fill="#3A414A" transform="matrix(1 0 0 1.00283 96.0352 80.9507)"/><path d="M543.965 442.876 541.395 434.961 546.535 434.961Z" stroke="#3A414A" stroke-width="0.555066" fill="#3A414A" transform="matrix(1 0 0 1.00283 96.0352 80.9507)"/><path d="M566.167 510.661C578.434 510.661 588.37 520.596 588.37 532.863 588.37 545.13 578.434 555.066 566.167 555.066L521.762 555.066C509.495 555.066 499.56 545.13 499.56 532.863 499.56 520.596 509.495 510.661 521.762 510.661Z" stroke="#3A414A" stroke-width="0.555066" fill="url(#fill0)" transform="matrix(1 0 0 1.00283 96.0352 80.9507)"/><path d="M7.02399 0 6.06461-2.46696 2.19285-2.46696 1.23348 0 0.0342633 0 3.49486-8.49731 4.79687-8.49731 8.18894 0 7.02399 0ZM5.72198-3.39207 4.1116-7.60646C3.70044-6.06461 3.04944-4.79687 2.53549-3.39207L5.72198-3.39207" fill="#3A414A" transform="matrix(1 0 0 1.00283 602.673 610.608)"/><path d="M2.91238-6.64709C3.97455-6.64709 4.55702-6.20166 4.96818-5.5164L4.93392-8.94273 6.03035-8.94273 6.06461 0 5.03671 0C4.96818-0.342633 5.03671-0.788057 4.93392-1.06216 4.59129-0.274107 3.97455 0.137053 2.91238 0.137053 1.09643 0.137053 0.548213-1.19922 0.51395-3.22075 0.51395-5.48213 1.30201-6.64709 2.91238-6.64709ZM3.22075-5.82477C1.85022-5.82477 1.64464-4.65981 1.64464-3.25502 1.64464-1.88448 1.85022-0.71953 3.18649-0.71953 4.62555-0.71953 4.93392-1.81596 4.93392-3.32354 4.93392-4.7626 4.62555-5.85903 3.22075-5.82477" fill="#3A414A" transform="matrix(1 0 0 1.00283 610.896 610.608)"/><path d="M2.91238-6.64709C3.97455-6.64709 4.55702-6.20166 4.96818-5.5164L4.93392-8.94273 6.03035-8.94273 6.06461 0 5.03671 0C4.96818-0.342633 5.03671-0.788057 4.93392-1.06216 4.59129-0.274107 3.97455 0.137053 2.91238 0.137053 1.09643 0.137053 0.548213-1.19922 0.51395-3.22075 0.51395-5.48213 1.30201-6.64709 2.91238-6.64709ZM3.22075-5.82477C1.85022-5.82477 1.64464-4.65981 1.64464-3.25502 1.64464-1.88448 1.85022-0.71953 3.18649-0.71953 4.62555-0.71953 4.93392-1.81596 4.93392-3.32354 4.93392-4.7626 4.62555-5.85903 3.22075-5.82477" fill="#3A414A" transform="matrix(1 0 0 1.00283 617.749 610.608)"/><path d="M6.06461-6.51004C5.72198-2.22712 7.46941 3.52912 2.29564 2.4327 1.50759 2.22712 0.993637 1.74743 0.788057 0.959374L1.88448 0.788057C2.39843 2.39843 5.31082 1.88448 4.93392-0.171317L4.93392-1.19922C4.55702-0.479687 3.94028 0.0342633 2.84386 0.0342633 0.993637 0.0342633 0.51395-1.37053 0.51395-3.25502 0.51395-5.17376 1.06216-6.57856 2.94665-6.61282 3.94028-6.64709 4.59129-6.06461 4.96818-5.41361 5.00245-5.75624 4.96818-6.20166 5.03671-6.51004L6.06461-6.51004ZM3.22075-0.753794C4.45423-0.753794 4.93392-1.85022 4.93392-3.25502 4.93392-4.69408 4.45423-5.82477 3.22075-5.82477 1.88448-5.82477 1.64464-4.65981 1.64464-3.25502 1.64464-1.85022 1.85022-0.753794 3.22075-0.753794" fill="#3A414A" transform="matrix(1 0 0 1.00283 628.028 610.608)"/><path d="M4.83113-1.23348C4.31718-0.51395 3.76897 0.171317 2.50122 0.137053 1.26774 0.10279 0.51395-0.582477 0.51395-1.81596 0.479687-4.00881 2.67254-3.97455 4.79687-3.97455 4.89966-5.17376 4.4885-5.82477 3.39207-5.82477 2.56975-5.7905 1.98727-5.58492 1.95301-4.7626L0.82232-4.86539C0.993637-6.13314 1.95301-6.64709 3.42633-6.64709 4.96818-6.64709 5.89329-5.96182 5.89329-4.45423L5.89329-1.64464C5.85903-0.959374 6.13314-0.548213 6.85267-0.71953L6.85267-0.0342633C5.7905 0.274107 4.7626-0.10279 4.83113-1.23348ZM1.64464-1.81596C1.64464-1.13069 2.0558-0.685267 2.74107-0.685267 4.14586-0.788057 4.89966-1.6789 4.79687-3.22075 3.32354-3.15223 1.64464-3.39207 1.64464-1.81596" fill="#3A414A" transform="matrix(1 0 0 1.00283 634.88 610.608)"/><path d="M2.87812 0.137053C-0.171317 0.274107 1.0279-3.83749 0.788057-6.51004L1.88448-6.51004 1.88448-2.39843C1.88448-1.33627 2.12433-0.685267 3.22075-0.71953 5.68772-0.788057 4.7626-4.18013 4.93392-6.51004L5.99609-6.51004 6.03035 0 5.00245 0C4.96818-0.342633 5.03671-0.856584 4.93392-1.13069 4.55702-0.376897 3.97455 0.10279 2.87812 0.137053" fill="#3A414A" transform="matrix(1 0 0 1.00283 641.733 610.608)"/><path d="M4.62555-4.89966C4.52276-6.06461 1.6789-6.20166 1.64464-4.89966 2.15859-3.0837 5.58492-4.4885 5.72198-1.81596 5.85903 0.856584 0.582477 0.71953 0.342633-1.54185L1.30201-1.71317C1.43906-0.479687 4.62555-0.171317 4.65981-1.71317 4.31718-3.63191 0.788057-2.22712 0.61674-4.79687 0.479687-6.74988 3.42633-6.95546 4.79687-6.23593 5.20803-5.99609 5.5164-5.58492 5.61919-5.03671" fill="#3A414A" transform="matrix(1 0 0 1.00283 648.586 610.608)"/><path d="M4.62555-4.89966C4.52276-6.06461 1.6789-6.20166 1.64464-4.89966 2.15859-3.0837 5.58492-4.4885 5.72198-1.81596 5.85903 0.856584 0.582477 0.71953 0.342633-1.54185L1.30201-1.71317C1.43906-0.479687 4.62555-0.171317 4.65981-1.71317 4.31718-3.63191 0.788057-2.22712 0.61674-4.79687 0.479687-6.74988 3.42633-6.95546 4.79687-6.23593 5.20803-5.99609 5.5164-5.58492 5.61919-5.03671" fill="#3A414A" transform="matrix(1 0 0 1.00283 654.753 610.608)"/><path d="M0.82232-7.91483 0.82232-8.94273 1.91875-8.94273 1.91875-7.91483 0.82232-7.91483ZM0.82232 0 0.82232-6.51004 1.91875-6.51004 1.91875 0 0.82232 0" fill="#3A414A" transform="matrix(1 0 0 1.00283 660.921 610.608)"/><path d="M4.83113-1.23348C4.31718-0.51395 3.76897 0.171317 2.50122 0.137053 1.26774 0.10279 0.51395-0.582477 0.51395-1.81596 0.479687-4.00881 2.67254-3.97455 4.79687-3.97455 4.89966-5.17376 4.4885-5.82477 3.39207-5.82477 2.56975-5.7905 1.98727-5.58492 1.95301-4.7626L0.82232-4.86539C0.993637-6.13314 1.95301-6.64709 3.42633-6.64709 4.96818-6.64709 5.89329-5.96182 5.89329-4.45423L5.89329-1.64464C5.85903-0.959374 6.13314-0.548213 6.85267-0.71953L6.85267-0.0342633C5.7905 0.274107 4.7626-0.10279 4.83113-1.23348ZM1.64464-1.81596C1.64464-1.13069 2.0558-0.685267 2.74107-0.685267 4.14586-0.788057 4.89966-1.6789 4.79687-3.22075 3.32354-3.15223 1.64464-3.39207 1.64464-1.81596" fill="#3A414A" transform="matrix(1 0 0 1.00283 663.627 610.608)"/><path d="M4.00881-6.64709C7.05825-6.78414 5.82477-2.67254 6.06461 0L4.96818 0 4.96818-4.14586C4.96818-5.20803 4.69408-5.82477 3.63191-5.7905 1.16495-5.72198 2.12433-2.29564 1.95301 0L0.856584 0 0.82232-6.51004 1.85022-6.51004C1.88448-6.1674 1.81596-5.68772 1.91875-5.41361 2.29564-6.1674 2.91238-6.61282 4.00881-6.64709" fill="#3A414A" transform="matrix(1 0 0 1.00283 670.48 610.608)"/><path d="M3.94028-6.64709C5.75624-6.64709 6.30445-5.31082 6.33872-3.28928 6.33872-1.0279 5.55066 0.137053 3.94028 0.137053 2.87812 0.10279 2.26138-0.239843 1.91875-1.0279L1.85022 0 0.788057 0 0.82232-8.94273 1.91875-8.94273 1.91875-5.48213C2.26138-6.27019 2.87812-6.64709 3.94028-6.64709ZM3.66618-0.685267C5.03671-0.685267 5.20803-1.85022 5.20803-3.25502 5.20803-4.62555 5.03671-5.82477 3.66618-5.7905 2.22712-5.7905 1.91875-4.69408 1.91875-3.18649 1.91875-1.71317 2.26138-0.685267 3.66618-0.685267" fill="#3A414A" transform="matrix(1 0 0 1.00283 629.758 625.451)"/><path d="M0.82232 0 0.82232-8.94273 1.91875-8.94273 1.91875 0 0.82232 0" fill="#3A414A" transform="matrix(1 0 0 1.00283 636.611 625.451)"/><path d="M2.87812 0.137053C-0.171317 0.274107 1.0279-3.83749 0.788057-6.51004L1.88448-6.51004 1.88448-2.39843C1.88448-1.33627 2.12433-0.685267 3.22075-0.71953 5.68772-0.788057 4.7626-4.18013 4.93392-6.51004L5.99609-6.51004 6.03035 0 5.00245 0C4.96818-0.342633 5.03671-0.856584 4.93392-1.13069 4.55702-0.376897 3.97455 0.10279 2.87812 0.137053" fill="#3A414A" transform="matrix(1 0 0 1.00283 639.317 625.451)"/><path d="M3.90602-5.58492C1.23348-6.13314 2.09006-2.46696 1.95301 0L0.856584 0 0.82232-6.51004 1.85022-6.51004C1.88448-6.09888 1.81596-5.5164 1.91875-5.17376 2.12433-6.09888 2.7068-6.85267 3.90602-6.57856L3.90602-5.58492" fill="#3A414A" transform="matrix(1 0 0 1.00283 646.17 625.451)"/><path d="M543.965 489.013 543.965 501.291" stroke="#3A414A" stroke-width="0.555066" fill="none" transform="matrix(1 0 0 1.00283 96.0352 80.9507)"/><path d="M544.242 489.013 543.687 489.013 543.687 488.736 544.242 488.736Z" stroke="#3A414A" stroke-width="0.0277533" fill="#3A414A" transform="matrix(1 0 0 1.00283 96.0352 80.9507)"/><path d="M543.965 509.484 541.395 501.569 546.535 501.569Z" stroke="#3A414A" stroke-width="0.555066" fill="#3A414A" transform="matrix(1 0 0 1.00283 96.0352 80.9507)"/><path d="M421.85 321.938C421.85 328.072 414.396 333.04 405.198 333.04 396.001 333.04 388.546 328.072 388.546 321.938 388.546 315.805 396.001 310.837 405.198 310.837 414.396 310.837 421.85 315.805 421.85 321.938Z" stroke="#3A414A" stroke-width="0.555066" fill="#F4D9FF" transform="matrix(1 0 0 1.00283 96.0352 80.9507)"/><path d="M3.8022-2.85859 3.8022 0 2.85859 0 2.85859-2.85859 0.222026-6.88282 1.2489-6.88282 3.3304-3.60793 5.41189-6.88282 6.43877-6.88282" transform="matrix(1 0 0 1.00283 493.091 405.699)"/><path d="M2.77533-5.38414C4.52379-5.38414 5.16211-4.2185 5.10661-2.44229L1.35991-2.44229C1.35991-1.33216 1.74846-0.582819 2.83084-0.555066 3.55242-0.527313 4.02423-0.888106 4.19075-1.35991L4.96784-1.13789C4.66256-0.360793 3.94097 0.111013 2.83084 0.111013 1.22115 0.111013 0.388546-0.915859 0.4163-2.66432 0.444053-4.35727 1.13789-5.38414 2.77533-5.38414ZM4.2185-3.13612C4.38502-4.80132 2.10925-5.27313 1.52643-3.91322 1.44317-3.71894 1.35991-3.44141 1.35991-3.13612L4.2185-3.13612" transform="matrix(1 0 0 1.00283 498.836 405.699)"/><path d="M3.7467-3.96872C3.66344-4.91233 1.35991-5.02335 1.33216-3.96872 1.74846-2.4978 4.52379-3.63568 4.6348-1.47093 4.74582 0.693833 0.471806 0.582819 0.277533-1.2489L1.05463-1.38767C1.16564-0.388546 3.7467-0.138767 3.77445-1.38767 3.49692-2.94185 0.638326-1.80396 0.499559-3.88546 0.388546-5.4674 2.77533-5.63392 3.88546-5.0511 4.2185-4.85683 4.46828-4.52379 4.55154-4.07974" transform="matrix(1 0 0 1.00283 504.386 405.699)"/><path d="M704.934 319.718C704.934 325.852 697.479 330.819 688.282 330.819 679.085 330.819 671.63 325.852 671.63 319.718 671.63 313.585 679.085 308.617 688.282 308.617 697.479 308.617 704.934 313.585 704.934 319.718Z" stroke="#3A414A" stroke-width="0.555066" fill="#F4D9FF" transform="matrix(1 0 0 1.00283 96.0352 80.9507)"/><path d="M5.27313 0 1.60969-5.85595 1.63744 0 0.832599 0 0.832599-6.88282 1.91498-6.88282 5.60617-0.971366 5.55066-6.88282 6.41101-6.88282 6.41101 0 5.27313 0" transform="matrix(1 0 0 1.00283 777.951 403.472)"/><path d="M2.77533-5.38414C4.49604-5.41189 5.13436-4.35727 5.13436-2.63656 5.16211-0.888106 4.38502 0.111013 2.74758 0.111013 1.11013 0.111013 0.444053-0.971366 0.4163-2.63656 0.4163-4.46828 1.19339-5.38414 2.77533-5.38414ZM2.74758-0.555066C3.96872-0.527313 4.2185-1.41542 4.2185-2.63656 4.2185-3.82996 3.99648-4.71806 2.80308-4.71806 1.60969-4.71806 1.33216-3.82996 1.33216-2.63656 1.33216-1.44317 1.60969-0.582819 2.74758-0.555066" transform="matrix(1 0 0 1.00283 785.139 403.472)"/></g></svg>